# xmcd
#
# Track frame offsets:
#	150
#	11448
#	23109
#	37301
#	51424
#	61721
#	74813
#	90555
#	101203
#	118750
#	132209
#	145924
#	159837
#	172038
#	188008
#	206793
#	215718
#	232692
#	244894
#	256225
#
# Disc length: 3565 seconds
#
# Revision: 1
# Processed by: cddbd v1.5.2PL0 Copyright (c) Steve Scherf et al.
# Submitted via: audiograbber 1.83.01
#
DISCID=250deb14
DTITLE=Various Artist - Country ballads    CD 1
DYEAR=1998
DGENRE=County
TTITLE0=Hello Darling - Conway Twitty
TTITLE1=Walkin After Midnight - Patsy Cline
TTITLE2=My Eclusive Dreams - Roger Miller
TTITLE3=Always Wanting You - Merle Haggard
TTITLE4=What am I Living for - Mickey Gilley
TTITLE5=Daddy - Donna Fargo
TTITLE6=When You Fall In Love Everything´s A Walz - Ed Bruce
TTITLE7=Love Lifted Me - Eddy Raven
TTITLE8=Baby I Lied - Deborah Allen
TTITLE9=Hearts aren´t made to Break ( They´re made to Love )  -  Lee Greenwood
TTITLE10=I tell it like it used to be  -  T. Graham Brown
TTITLE11=Crying Time  -  The Kendalls
TTITLE12=The tips of my fingers  -  Bill Anderson
TTITLE13=Lookin for love  -  Jonny Lee
TTITLE14=Winter in America  -  Doug Ashdown
TTITLE15=Born a woman  -  Sandy Posey
TTITLE16=Today I started loving you again  -  Merle Haggard
TTITLE17=To get to you  -  Jerry Wallace
TTITLE18=Just out of Reach  -  Patsy Cline
TTITLE19=It´s only make believe  -  Conway Twitty
EXTD=
EXTT0=
EXTT1=
EXTT2=
EXTT3=
EXTT4=
EXTT5=
EXTT6=
EXTT7=
EXTT8=
EXTT9=
EXTT10=
EXTT11=
EXTT12=
EXTT13=
EXTT14=
EXTT15=
EXTT16=
EXTT17=
EXTT18=
EXTT19=
PLAYORDER=
